<mxfile host="app.diagrams.net" modified="2024-05-14T23:23:19.543Z" agent="Mozilla/5.0 (Windows NT 10.0; Win64; x64) AppleWebKit/537.36 (KHTML, like Gecko) Chrome/125.0.0.0 Safari/537.36 Edg/125.0.0.0" etag="XktAwNKJOn7CcBnlO1tB" version="24.4.0" type="device">
  <diagram name="Page-1" id="EfUJFs19mwuwOZBDvQ59">
    <mxGraphModel dx="1453" dy="788" grid="1" gridSize="10" guides="1" tooltips="1" connect="1" arrows="1" fold="1" page="1" pageScale="1" pageWidth="850" pageHeight="1100" math="0" shadow="0">
      <root>
        <mxCell id="0" />
        <mxCell id="1" parent="0" />
        <mxCell id="KNtYla58p1ee00Tm7Snt-2" value="&lt;span style=&quot;font-weight: normal;&quot;&gt;Aplikasi&lt;/span&gt;" style="swimlane;startSize=20;whiteSpace=wrap;html=1;" vertex="1" parent="1">
          <mxGeometry x="180" y="90" width="190" height="670" as="geometry">
            <mxRectangle x="360" y="90" width="70" height="30" as="alternateBounds" />
          </mxGeometry>
        </mxCell>
        <mxCell id="KNtYla58p1ee00Tm7Snt-7" value="" style="edgeStyle=orthogonalEdgeStyle;rounded=0;orthogonalLoop=1;jettySize=auto;html=1;" edge="1" parent="KNtYla58p1ee00Tm7Snt-2" source="KNtYla58p1ee00Tm7Snt-4" target="KNtYla58p1ee00Tm7Snt-5">
          <mxGeometry relative="1" as="geometry" />
        </mxCell>
        <mxCell id="KNtYla58p1ee00Tm7Snt-4" value="" style="ellipse;whiteSpace=wrap;html=1;aspect=fixed;fillColor=#000000;" vertex="1" parent="KNtYla58p1ee00Tm7Snt-2">
          <mxGeometry x="75" y="30" width="40" height="40" as="geometry" />
        </mxCell>
        <mxCell id="KNtYla58p1ee00Tm7Snt-5" value="login" style="rounded=1;whiteSpace=wrap;html=1;" vertex="1" parent="KNtYla58p1ee00Tm7Snt-2">
          <mxGeometry x="53.75" y="100" width="82.5" height="30" as="geometry" />
        </mxCell>
        <mxCell id="KNtYla58p1ee00Tm7Snt-18" style="edgeStyle=orthogonalEdgeStyle;rounded=0;orthogonalLoop=1;jettySize=auto;html=1;entryX=0.5;entryY=0;entryDx=0;entryDy=0;" edge="1" parent="KNtYla58p1ee00Tm7Snt-2" source="KNtYla58p1ee00Tm7Snt-13" target="KNtYla58p1ee00Tm7Snt-17">
          <mxGeometry relative="1" as="geometry" />
        </mxCell>
        <mxCell id="KNtYla58p1ee00Tm7Snt-13" value="Menu Aplikasi" style="rounded=1;whiteSpace=wrap;html=1;" vertex="1" parent="KNtYla58p1ee00Tm7Snt-2">
          <mxGeometry x="53.75" y="230" width="95" height="40" as="geometry" />
        </mxCell>
        <mxCell id="KNtYla58p1ee00Tm7Snt-16" value="Tidak" style="text;html=1;align=center;verticalAlign=middle;resizable=0;points=[];autosize=1;strokeColor=none;fillColor=none;" vertex="1" parent="KNtYla58p1ee00Tm7Snt-2">
          <mxGeometry x="136.25" y="168" width="50" height="30" as="geometry" />
        </mxCell>
        <mxCell id="KNtYla58p1ee00Tm7Snt-33" value="" style="edgeStyle=orthogonalEdgeStyle;rounded=0;orthogonalLoop=1;jettySize=auto;html=1;" edge="1" parent="KNtYla58p1ee00Tm7Snt-2" source="KNtYla58p1ee00Tm7Snt-17" target="KNtYla58p1ee00Tm7Snt-31">
          <mxGeometry relative="1" as="geometry" />
        </mxCell>
        <mxCell id="KNtYla58p1ee00Tm7Snt-17" value="Input Judul Skripsi" style="rounded=1;whiteSpace=wrap;html=1;" vertex="1" parent="KNtYla58p1ee00Tm7Snt-2">
          <mxGeometry x="41.25" y="320" width="120" height="40" as="geometry" />
        </mxCell>
        <mxCell id="KNtYla58p1ee00Tm7Snt-29" value="" style="edgeStyle=orthogonalEdgeStyle;rounded=0;orthogonalLoop=1;jettySize=auto;html=1;" edge="1" parent="KNtYla58p1ee00Tm7Snt-2" source="KNtYla58p1ee00Tm7Snt-21" target="KNtYla58p1ee00Tm7Snt-28">
          <mxGeometry relative="1" as="geometry" />
        </mxCell>
        <mxCell id="KNtYla58p1ee00Tm7Snt-21" value="View Hasil" style="rounded=1;whiteSpace=wrap;html=1;" vertex="1" parent="KNtYla58p1ee00Tm7Snt-2">
          <mxGeometry x="42.5" y="500" width="118.75" height="50" as="geometry" />
        </mxCell>
        <mxCell id="KNtYla58p1ee00Tm7Snt-24" value="" style="ellipse;whiteSpace=wrap;html=1;aspect=fixed;fillColor=#000000;" vertex="1" parent="KNtYla58p1ee00Tm7Snt-2">
          <mxGeometry x="82.5" y="600" width="40" height="40" as="geometry" />
        </mxCell>
        <mxCell id="KNtYla58p1ee00Tm7Snt-28" value="" style="ellipse;whiteSpace=wrap;html=1;aspect=fixed;fillColor=none;" vertex="1" parent="KNtYla58p1ee00Tm7Snt-2">
          <mxGeometry x="72.5" y="590" width="60" height="60" as="geometry" />
        </mxCell>
        <mxCell id="KNtYla58p1ee00Tm7Snt-35" value="" style="edgeStyle=orthogonalEdgeStyle;rounded=0;orthogonalLoop=1;jettySize=auto;html=1;" edge="1" parent="KNtYla58p1ee00Tm7Snt-2" source="KNtYla58p1ee00Tm7Snt-31" target="KNtYla58p1ee00Tm7Snt-21">
          <mxGeometry relative="1" as="geometry" />
        </mxCell>
        <mxCell id="KNtYla58p1ee00Tm7Snt-31" value="Mengelola Judul Skripsi" style="rounded=1;whiteSpace=wrap;html=1;" vertex="1" parent="KNtYla58p1ee00Tm7Snt-2">
          <mxGeometry x="41.25" y="400" width="120" height="60" as="geometry" />
        </mxCell>
        <mxCell id="KNtYla58p1ee00Tm7Snt-3" value="&lt;span style=&quot;font-weight: normal;&quot;&gt;Sistem&lt;/span&gt;" style="swimlane;startSize=20;whiteSpace=wrap;html=1;" vertex="1" parent="1">
          <mxGeometry x="370" y="90" width="180" height="670" as="geometry" />
        </mxCell>
        <mxCell id="KNtYla58p1ee00Tm7Snt-11" value="" style="edgeStyle=orthogonalEdgeStyle;rounded=0;orthogonalLoop=1;jettySize=auto;html=1;" edge="1" parent="KNtYla58p1ee00Tm7Snt-3" source="KNtYla58p1ee00Tm7Snt-8" target="KNtYla58p1ee00Tm7Snt-10">
          <mxGeometry relative="1" as="geometry" />
        </mxCell>
        <mxCell id="KNtYla58p1ee00Tm7Snt-8" value="Validasi Login" style="rounded=1;whiteSpace=wrap;html=1;" vertex="1" parent="KNtYla58p1ee00Tm7Snt-3">
          <mxGeometry x="50" y="95" width="110" height="40" as="geometry" />
        </mxCell>
        <mxCell id="KNtYla58p1ee00Tm7Snt-10" value="" style="rhombus;whiteSpace=wrap;html=1;" vertex="1" parent="KNtYla58p1ee00Tm7Snt-3">
          <mxGeometry x="75" y="170" width="60" height="50" as="geometry" />
        </mxCell>
        <mxCell id="KNtYla58p1ee00Tm7Snt-15" value="Ya" style="text;html=1;align=center;verticalAlign=middle;whiteSpace=wrap;rounded=0;" vertex="1" parent="KNtYla58p1ee00Tm7Snt-3">
          <mxGeometry x="15" y="230" width="40" height="20" as="geometry" />
        </mxCell>
        <mxCell id="KNtYla58p1ee00Tm7Snt-19" value="Proses Deteksi Kemiripan Dengan &lt;i&gt;TF-IDF &lt;/i&gt;Dan &lt;i&gt;Fuzzy Matching&lt;/i&gt;" style="rounded=1;whiteSpace=wrap;html=1;" vertex="1" parent="KNtYla58p1ee00Tm7Snt-3">
          <mxGeometry x="30" y="305" width="130" height="70" as="geometry" />
        </mxCell>
        <mxCell id="KNtYla58p1ee00Tm7Snt-9" style="edgeStyle=orthogonalEdgeStyle;rounded=0;orthogonalLoop=1;jettySize=auto;html=1;entryX=0;entryY=0.5;entryDx=0;entryDy=0;" edge="1" parent="1" source="KNtYla58p1ee00Tm7Snt-5" target="KNtYla58p1ee00Tm7Snt-8">
          <mxGeometry relative="1" as="geometry" />
        </mxCell>
        <mxCell id="KNtYla58p1ee00Tm7Snt-12" style="edgeStyle=orthogonalEdgeStyle;rounded=0;orthogonalLoop=1;jettySize=auto;html=1;entryX=0.5;entryY=1;entryDx=0;entryDy=0;" edge="1" parent="1" source="KNtYla58p1ee00Tm7Snt-10" target="KNtYla58p1ee00Tm7Snt-5">
          <mxGeometry relative="1" as="geometry" />
        </mxCell>
        <mxCell id="KNtYla58p1ee00Tm7Snt-14" style="edgeStyle=orthogonalEdgeStyle;rounded=0;orthogonalLoop=1;jettySize=auto;html=1;entryX=1;entryY=0.5;entryDx=0;entryDy=0;" edge="1" parent="1" source="KNtYla58p1ee00Tm7Snt-10" target="KNtYla58p1ee00Tm7Snt-13">
          <mxGeometry relative="1" as="geometry">
            <Array as="points">
              <mxPoint x="475" y="340" />
            </Array>
          </mxGeometry>
        </mxCell>
        <mxCell id="KNtYla58p1ee00Tm7Snt-20" style="edgeStyle=orthogonalEdgeStyle;rounded=0;orthogonalLoop=1;jettySize=auto;html=1;" edge="1" parent="1" source="KNtYla58p1ee00Tm7Snt-17" target="KNtYla58p1ee00Tm7Snt-19">
          <mxGeometry relative="1" as="geometry" />
        </mxCell>
        <mxCell id="KNtYla58p1ee00Tm7Snt-22" style="edgeStyle=orthogonalEdgeStyle;rounded=0;orthogonalLoop=1;jettySize=auto;html=1;entryX=1;entryY=0.5;entryDx=0;entryDy=0;" edge="1" parent="1" source="KNtYla58p1ee00Tm7Snt-19" target="KNtYla58p1ee00Tm7Snt-21">
          <mxGeometry relative="1" as="geometry">
            <Array as="points">
              <mxPoint x="470" y="615" />
            </Array>
          </mxGeometry>
        </mxCell>
      </root>
    </mxGraphModel>
  </diagram>
</mxfile>
